<svg width="17" height="18" viewBox="0 0 17 18" fill="none" xmlns="http://www.w3.org/2000/svg">
<g opacity="0.5">
<path d="M7.79183 6.75H9.2085V4.5H11.3335V3H9.2085V0.75H7.79183V3H5.66683V4.5H7.79183V6.75ZM4.9585 13.5C4.17933 13.5 3.54891 14.175 3.54891 15C3.54891 15.825 4.17933 16.5 4.9585 16.5C5.73766 16.5 6.37516 15.825 6.37516 15C6.37516 14.175 5.73766 13.5 4.9585 13.5ZM12.0418 13.5C11.2627 13.5 10.6322 14.175 10.6322 15C10.6322 15.825 11.2627 16.5 12.0418 16.5C12.821 16.5 13.4585 15.825 13.4585 15C13.4585 14.175 12.821 13.5 12.0418 13.5ZM5.07891 11.0625L5.10016 10.9725L5.73766 9.75H11.0147C11.546 9.75 12.0135 9.4425 12.2543 8.9775L14.9885 3.72L13.756 3H13.7489L12.9697 4.5L11.0147 8.25H6.04225L5.95016 8.0475L4.3635 4.5L3.69058 3L3.02475 1.5H0.708496V3H2.12516L4.67516 8.6925L3.71891 10.53C3.60558 10.74 3.54183 10.9875 3.54183 11.25C3.54183 12.075 4.17933 12.75 4.9585 12.75H13.4585V11.25H5.256C5.16391 11.25 5.07891 11.1675 5.07891 11.0625Z" fill="white"/>
</g>
</svg>
