<svg width="43" height="43" viewBox="0 0 43 43" fill="none" xmlns="http://www.w3.org/2000/svg">
<path d="M21.5002 3.58331C11.6102 3.58331 3.5835 11.61 3.5835 21.5C3.5835 31.39 11.6102 39.4166 21.5002 39.4166C31.3902 39.4166 39.4168 31.39 39.4168 21.5C39.4168 11.61 31.3902 3.58331 21.5002 3.58331ZM21.5002 33.1458C20.0131 33.1458 18.8127 31.9454 18.8127 30.4583H24.1877C24.1877 31.9454 22.9872 33.1458 21.5002 33.1458ZM30.4585 28.6666H12.5418V26.875L14.3335 25.0833V20.4071C14.3335 16.6087 16.1789 13.3837 19.7085 12.5416V11.6458C19.7085 10.6246 20.4789 9.85415 21.5002 9.85415C22.5214 9.85415 23.2918 10.6246 23.2918 11.6458V12.5416C26.8214 13.3837 28.6668 16.6266 28.6668 20.4071V25.0833L30.4585 26.875V28.6666Z" fill="#0B3272"/>
</svg>
