<svg width="16" height="17" viewBox="0 0 16 17" fill="none" xmlns="http://www.w3.org/2000/svg">
<g opacity="0.5">
<path d="M2.66667 9.20833H6.66667C7.03333 9.20833 7.33333 8.88958 7.33333 8.5V2.83333C7.33333 2.44375 7.03333 2.125 6.66667 2.125H2.66667C2.3 2.125 2 2.44375 2 2.83333V8.5C2 8.88958 2.3 9.20833 2.66667 9.20833ZM2.66667 14.875H6.66667C7.03333 14.875 7.33333 14.5562 7.33333 14.1667V11.3333C7.33333 10.9437 7.03333 10.625 6.66667 10.625H2.66667C2.3 10.625 2 10.9437 2 11.3333V14.1667C2 14.5562 2.3 14.875 2.66667 14.875ZM9.33333 14.875H13.3333C13.7 14.875 14 14.5562 14 14.1667V8.5C14 8.11042 13.7 7.79167 13.3333 7.79167H9.33333C8.96667 7.79167 8.66667 8.11042 8.66667 8.5V14.1667C8.66667 14.5562 8.96667 14.875 9.33333 14.875ZM8.66667 2.83333V5.66667C8.66667 6.05625 8.96667 6.375 9.33333 6.375H13.3333C13.7 6.375 14 6.05625 14 5.66667V2.83333C14 2.44375 13.7 2.125 13.3333 2.125H9.33333C8.96667 2.125 8.66667 2.44375 8.66667 2.83333Z" fill="white"/>
</g>
</svg>
