<svg width="39" height="39" viewBox="0 0 39 39" fill="none" xmlns="http://www.w3.org/2000/svg">
<path d="M19.5 0C8.736 0 0 8.736 0 19.5C0 30.264 8.736 39 19.5 39C30.264 39 39 30.264 39 19.5C39 8.736 30.264 0 19.5 0ZM19.5 32.175C17.8815 32.175 16.575 30.8685 16.575 29.25H22.425C22.425 30.8685 21.1185 32.175 19.5 32.175ZM29.25 27.3H9.75V25.35L11.7 23.4V18.3105C11.7 14.1765 13.7085 10.6665 17.55 9.75V8.775C17.55 7.6635 18.3885 6.825 19.5 6.825C20.6115 6.825 21.45 7.6635 21.45 8.775V9.75C25.2915 10.6665 27.3 14.196 27.3 18.3105V23.4L29.25 25.35V27.3Z" fill="#DBE9F7"/>
</svg>
