<svg width="1106" height="1106" viewBox="0 0 1106 1106" fill="none" xmlns="http://www.w3.org/2000/svg">
<g opacity="0.2">
<path d="M824.615 558.862C824.615 714.267 698.634 840.247 543.23 840.247C387.825 840.247 261.845 714.267 261.845 558.862C261.845 403.457 387.825 277.477 543.23 277.477C698.634 277.477 824.615 403.457 824.615 558.862Z" fill="#246EE9"/>
<path d="M934.042 570.587C934.042 786.427 759.07 961.399 543.23 961.399C327.39 961.399 152.417 786.427 152.417 570.587C152.417 354.747 327.39 179.774 543.23 179.774C759.07 179.774 934.042 354.747 934.042 570.587Z" fill="#246EE9" fill-opacity="0.55"/>
<path d="M1106 553C1106 858.414 858.414 1106 553 1106C247.587 1106 0 858.414 0 553C0 247.587 247.587 0 553 0C858.414 0 1106 247.587 1106 553Z" fill="#246EE9" fill-opacity="0.4"/>
</g>
</svg>
